Subj06walk_45
version=1
nRows=33
nColumns=19
inDegrees=no
endheader
time	l_ground_force_vx	l_ground_force_vy	l_ground_force_vz	l_ground_force_px	l_ground_force_py	l_ground_force_pz	ground_force_vx	ground_force_vy	ground_force_vz	ground_force_px	ground_force_py	ground_force_pz	l_ground_torque_x	l_ground_torque_y	l_ground_torque_z	ground_torque_x	ground_torque_y	ground_torque_z	
44.28	43.0141006682092	158.35447991278	-3.44595039309079	-0.34771523858824	0	-0.0417592638797798	-84.2522795807584	548.6121750163	5.38971012381707	0.122799052352895	0	0.0465215403691174	0	-6.68752039017481	0	0	-6.85421254724063	0
44.29	30.5137020333707	108.424214768352	-0.962339711375351	-0.343565083936676	0	-0.0388864814023111	-90.2306880373905	565.328021603222	-1.48848693595396	0.11719028857394	0	0.0475465022614728	0	-4.70501232640267	0	0	-6.72045433321618	0
44.3	20.2286461850138	68.8321294103275	1.97417789170874	-0.338163314212235	0	-0.0345512130703946	-93.2242998480034	576.028110571237	-8.73641514580662	0.110240640604098	0	0.0484280831794087	0	-2.80934512343354	0	0	-6.47603753069154	0
44.31	12.0246569963524	39.4801393868984	4.20718850210265	-0.331212376506792	0	-0.0254875069379996	-93.8381056077024	586.205154809793	-15.0513850247538	0.102112782533124	0	0.0491425759898438	0	-1.29984274624416	0	0	-6.2981996359881	0
44.32	0	0	0	0	0	0	-92.1389873124272	597.351938599384	-19.5502387816913	0.0932182645677328	0	0.0495612238863247	0	0	0	0	-6.13972516618826	0
44.33	0	0	0	0	0	0	-88.275852702607	608.057331736656	-22.2722034921056	0.0840818012857448	0	0.0497083714902804	0	0	0	0	-5.93808927192108	0
44.34	0	0	0	0	0	0	-82.8130326929527	616.098555590301	-23.5860722545077	0.0751109755174539	0	0.0496713268775106	0	0	0	0	-5.65497463734952	0
44.35	0	0	0	0	0	0	-76.4444532433791	619.750042356336	-24.1388181623826	0.0665980914631613	0	0.0496330697885644	0	0	0	0	-5.25020083469644	0
44.36	0	0	0	0	0	0	-70.0133118591041	618.084961610163	-24.5404502810945	0.0589080043042772	0	0.0496654166810969	0	0	0	0	-4.82296898656175	0
44.37	0	0	0	0	0	0	-64.0927878653826	611.26098662628	-25.0817674391488	0.0519168447982902	0	0.0499008802155825	0	0	0	0	-4.4256352767519	0
44.38	0	0	0	0	0	0	-58.7666285900004	600.124561079568	-25.6162239755065	0.0451387324202632	0	0.0502778764993999	0	0	0	0	-3.85025568965834	0
44.39	0	0	0	0	0	0	-53.9675151106327	586.092400047359	-25.8993973116942	0.0382859918281969	0	0.0507406665533353	0	0	0	0	-3.08199075679813	0
44.4	0	0	0	0	0	0	-49.7706519900678	570.332200722648	-25.7217808571285	0.0314312167562893	0	0.0510987034761213	0	0	0	0	-2.43244332339201	0
44.41	0	0	0	0	0	0	-46.2094913788309	554.049063413773	-24.9259381146072	0.024565316877403	0	0.0513054423942025	0	0	0	0	-2.14994117419309	0
44.42	0	0	0	0	0	0	-43.2824503797956	538.136224352255	-23.4502087875955	0.0177460172160563	0	0.0512738077017216	0	0	0	0	-2.24090409158362	0
44.43	0	0	0	0	0	0	-40.8849994375521	523.240283721731	-21.4701212187083	0.0110222494931196	0	0.050963097998048	0	0	0	0	-2.46651612072096	0
44.44	0	0	0	0	0	0	-39.003695694243	509.708676807567	-19.2818007161097	0.00412171615628656	0	0.0503064476424346	0	0	0	0	-2.67073531898399	0
44.45	0	0	0	0	0	0	-37.4229383254689	497.809712781555	-17.0255372171504	-0.00356881776435423	0	0.0494996887533469	0	0	0	0	-2.82934930185838	0
44.46	0	0	0	0	0	0	-35.5734296269674	487.328235684428	-14.8507067834424	-0.0126374430134355	0	0.0486990928451517	0	0	0	0	-2.84116746527908	0
44.47	0	0	0	0	0	0	-33.0659232967413	478.143518901194	-13.0138504788316	-0.0229953852628896	0	0.0481883305853733	0	0	0	0	-2.61289916891342	0
44.48	0	0	0	0	0	0	-29.9678346710362	470.072188876709	-11.7429631047556	-0.0338854850892678	0	0.0480354837772021	0	0	0	0	-2.30586969735598	0
44.49	0	0	0	0	0	0	-26.2775744310139	462.953834829373	-10.9813207440925	-0.0449605361616248	0	0.0483034361412305	0	0	0	0	-1.98958181924662	0
44.5	0	0	0	0	0	0	-22.2437594508219	456.607719876425	-10.6664574105467	-0.0558434837656527	0	0.0487956903097789	0	0	0	0	-1.59531566277808	0
44.51	0	0	0	0	0	0	-18.328975356747	451.04236691106	-10.6077122476462	-0.0661697378932467	0	0.0493710758537686	0	0	0	0	-1.18604045984947	0
44.52	0	0	0	0	0	0	-14.8360437722073	446.392915956422	-10.6249895146719	-0.0758350853102135	0	0.049857932954026	0	0	0	0	-0.770274454609609	0
44.53	0	0	0	0	0	0	-11.7157305908535	442.800645681548	-10.5740306254707	-0.0848504019818075	0	0.0501939284878013	0	0	0	0	-0.40620840353601	0
44.54	0	0	0	0	0	0	-8.60977310516287	440.20352767311	-10.4016996870425	-0.0932861365689995	0	0.0503007318264188	0	0	0	0	-0.13499498204667	0
44.55	0	0	0	0	0	0	-5.05341612252643	438.979229835131	-10.1439873383676	-0.101696235328112	0	0.0503465228559239	0	0	0	0	0.160311762228259	0
44.56	0	0	0	0	0	0	-0.949011133503222	439.644830507042	-9.92085522165065	-0.110461427917968	0	0.0504139284018096	0	0	0	0	0.553000385896622	0
44.57	0	0	0	0	0	0	3.366923696666	442.658518415799	-9.91446015213159	-0.119410118953595	0	0.0505870659009824	0	0	0	0	1.01827822786405	0
44.58	0	0	0	0	0	0	7.34520642485879	448.151146658383	-10.1086025097102	-0.128516283169301	0	0.0507794320055208	0	0	0	0	1.41868611983191	0
44.59	0	0	0	0	0	0	10.8419364185268	456.099919621266	-10.3065490414961	-0.137952527480786	0	0.051032353840934	0	0	0	0	1.64703524339982	0
44.6	0	0	0	0	0	0	14.3180448141177	466.161663951421	-10.4842586504582	-0.148009252972551	0	0.0512138225619467	0	0	0	0	1.65024113123477	0
